<?xml version="1.0" encoding="UTF-8"?>
<svg width="24px" height="24px" viewBox="0 0 24 24" version="1.1" xmlns="http://www.w3.org/2000/svg">
    <g stroke="none" stroke-width="1" fill="none" fill-rule="evenodd">
        <path d="M20.64 12.2045C20.64 11.5664 20.5827 10.9527 20.4764 10.3636H12V13.845H16.8436C16.635 14.97 15.8582 15.9232 14.6591 16.5614V18.8195H17.9564C19.6582 17.2527 20.64 14.9455 20.64 12.2045Z" fill="#4285F4"/>
        <path d="M12 21C14.43 21 16.4673 20.1941 17.9564 18.8195L14.6591 16.5614C13.7414 17.1014 12.5341 17.4205 12 17.4205C9.65591 17.4205 7.67182 15.8373 6.96409 13.71H3.61091V16.0418C5.10182 18.9832 8.34773 21 12 21Z" fill="#34A853"/>
        <path d="M6.96409 13.71C6.78409 13.17 6.68182 12.5932 6.68182 12C6.68182 11.4068 6.78409 10.83 6.96409 10.29V7.95818H3.61091C3.22409 8.91818 3 9.94318 3 11C3 12.0568 3.22409 13.0818 3.61091 14.0418L6.96409 13.71Z" fill="#FBBC05"/>
        <path d="M12 6.57955C13.3214 6.57955 14.5077 7.03364 15.4405 7.92545L18.3618 5.00409C16.4673 3.20364 14.43 2.5 12 2.5C8.34773 2.5 5.10182 4.51682 3.61091 7.95818L6.96409 10.29C7.67182 8.16273 9.65591 6.57955 12 6.57955Z" fill="#EA4335"/>
    </g>
</svg> 